<svg xmlns="http://www.w3.org/2000/svg" width="24" height="24" viewBox="0 0 24 24"><defs><style>.a{fill:none;stroke:#000031;stroke-linecap:square;stroke-miterlimit:10;stroke-width:2px;}</style></defs><path class="a" d="M23,12a2,2,0,0,0-2-2H19.738a7.968,7.968,0,0,0-.852-2.058l.892-.892A2,2,0,1,0,16.95,4.222l-.892.892A7.968,7.968,0,0,0,14,4.262V3a2,2,0,0,0-4,0V4.262a7.968,7.968,0,0,0-2.058.852L7.05,4.222A2,2,0,0,0,4.222,7.05l.892.892A7.968,7.968,0,0,0,4.262,10H3a2,2,0,0,0,0,4H4.262a7.968,7.968,0,0,0,.852,2.058l-.892.892A2,2,0,0,0,7.05,19.778l.892-.892A7.953,7.953,0,0,0,10,19.738V21a2,2,0,0,0,4,0V19.738a7.968,7.968,0,0,0,2.058-.852l.892.892a2,2,0,1,0,2.828-2.828l-.892-.892A7.953,7.953,0,0,0,19.738,14H21A2,2,0,0,0,23,12Z"/><circle class="a" cx="3" cy="3" r="3" transform="translate(9 9)"/></svg>