<svg xmlns="http://www.w3.org/2000/svg" width="120.021" height="31.62" viewBox="0 0 120.021 31.62"><defs><style>.a{fill:#000031;}.b{fill:#0552fe;}</style></defs><path class="a" d="M11.777,41.277a6.3,6.3,0,0,1-4.209,1.59C2.8,42.867,0,39.576,0,34.774V24.9H5.34v8.913c0,2.4.99,4.176,3.114,4.176a3.926,3.926,0,0,0,3.323-1.769V24.9h5.343V42.583H11.777Z" transform="translate(0 -17.472)"/><path class="a" d="M68.539,33.673,62.489,24.9h6.193l3.326,5.071L75.331,24.9h6.178l-6.038,8.773,6.366,8.91h-6.19L72,37.279l-3.642,5.3H62.17Z" transform="translate(-43.625 -17.472)"/><path class="a" d="M136.239,40.928a6.163,6.163,0,0,1-3.878,1.307c-5.235,0-8.561-4.278-8.561-9.125S127.114,24,132.349,24a6.175,6.175,0,0,1,3.878,1.345V24.268h5.34V41.952h-5.328Zm0-5.023V30.351a3.58,3.58,0,0,0-3.007-1.492,3.982,3.982,0,0,0-4.066,4.245,3.982,3.982,0,0,0,4.066,4.245,3.657,3.657,0,0,0,3.007-1.444Z" transform="translate(-86.87 -16.841)"/><path class="a" d="M188.18,33.043a9.223,9.223,0,0,1,16.949-4.952l-4.254,3a3.938,3.938,0,0,0-3.5-2.187,3.825,3.825,0,0,0-3.818,4.137,3.825,3.825,0,0,0,3.818,4.137,3.938,3.938,0,0,0,3.5-2.193l4.254,3.007a9.223,9.223,0,0,1-16.94-4.952Z" transform="translate(-132.046 -16.774)"/><path class="a" d="M252.157,24.549V17.969H250V13.336h2.157V8.42h5.34v4.916h4.955v4.633H257.5v5.483c0,2.121.895,3.007,3.007,3.007a4.594,4.594,0,0,0,1.948-.319v4.74a10.816,10.816,0,0,1-3.186.355C255.34,31.234,252.157,29.074,252.157,24.549Z" transform="translate(-175.425 -5.908)"/><path class="a" d="M299.2,0h5.34V25.111H299.2Z" transform="translate(-209.949)"/><path class="a" d="M328.286,42.583,321.78,24.9h5.668l3.678,11.213L334.795,24.9h5.668L331.54,49.092h-5.668Z" transform="translate(-225.793 -17.472)"/><path class="b" d="M376.73,63.334a3.821,3.821,0,1,1,3.818,3.818,3.779,3.779,0,0,1-3.818-3.818Z" transform="translate(-264.351 -41.758)"/></svg>